<?xml version="1.0" encoding="utf-8"?>
<!-- Generator: Adobe Illustrator 16.0.0, SVG Export Plug-In . SVG Version: 6.00 Build 0)  -->
<!DOCTYPE svg PUBLIC "-//W3C//DTD SVG 1.1//EN" "http://www.w3.org/Graphics/SVG/1.1/DTD/svg11.dtd">
<svg version="1.1" id="Layer_1" xmlns="http://www.w3.org/2000/svg" xmlns:xlink="http://www.w3.org/1999/xlink" x="0px" y="0px"
	 width="200px" height="200px" viewBox="0 0 200 200" enable-background="new 0 0 200 200" xml:space="preserve">
<g>
	<g>
		<g>
			<path fill="#FFFFFF" d="M162.523,170.131c20.563-8.503,34.443-30.964,32.853-53.157c-1.592-22.192-18.535-42.442-40.1-47.924
				c-12.165-3.092-25.741-2.032-36.366-8.714c-8.17-5.139-13.099-13.966-18.622-21.88c-5.521-7.917-12.863-15.736-22.451-16.852
				c-7.784-0.907-15.302,2.834-22.066,6.794c-11.102,6.502-21.795,14.001-30.244,23.707C7.786,72.474,1.603,102.285,9.778,128.03
				c2.571,8.096,6.424,15.717,10.34,23.256c5.018,9.653,10.361,19.486,18.677,26.501c9.486,8,21.965,11.56,34.269,13.169
				c30.739,4.023,62.822-3.192,88.878-19.985"/>
		</g>
		<g>
			<defs>
				<path id="SVGID_1_" d="M162.523,170.131c20.563-8.503,34.443-30.964,32.853-53.157c-1.592-22.192-4.021-40.582-15.907-59.389
					c-11.602-18.35-17.278-32.51-27.903-39.192c-8.172-5.14-29.437-6.712-45.603-4.96c-9.597,1.041-11.169-1.183-28.78,4.96
					c-7.399,2.58-14.647,6.045-21.412,10.005c-11.102,6.502-21.795,14.001-30.244,23.707C7.786,72.474,1.603,102.285,9.778,128.03
					c2.571,8.096,6.424,15.717,10.34,23.256c5.018,9.653,10.361,19.486,18.677,26.501c9.486,8,21.965,11.56,34.269,13.169
					c30.739,4.023,62.822-3.192,88.878-19.985"/>
			</defs>
			<clipPath id="SVGID_2_">
				<use xlink:href="#SVGID_1_"  overflow="visible"/>
			</clipPath>
			<g clip-path="url(#SVGID_2_)">
				<g>
					<path fill="#E89E0A" d="M90.354,189.494c0,0,6.352,6.589,19.37,4.04c13.021-2.55,15.215,0.541,19.104-5.894
						c3.89-6.436,3.492-18.566-7.433-29.213c-10.927-10.647-29.347-3.742-39.837,3.413
						C71.067,168.994,90.354,189.494,90.354,189.494z"/>
					<path fill="#2D1F04" d="M106.451,180.666c0,0-1.12-13.686,5.322-27.762c0,0,3.668,10.73,9.166,16.487
						C126.437,175.149,114.998,183.447,106.451,180.666z"/>
					<g>
						<path fill="#A06600" d="M93.962,179.485c-0.807,1.586-1.524,2.903-1.979,4.31c-0.242,0.695-0.412,1.401-0.513,2.149
							c-0.147,0.76-0.129,1.54-0.229,2.455c-0.596-0.666-1.02-1.509-1.154-2.419c-0.163-0.906-0.079-1.871,0.227-2.744
							c0.294-0.878,0.78-1.676,1.4-2.326C92.344,180.27,93.083,179.731,93.962,179.485z"/>
						<path fill="#A06600" d="M126.965,187.832c-0.881-1.676-1.577-3.158-2.477-4.508c-0.433-0.684-0.93-1.307-1.478-1.918
							c-0.532-0.646-1.19-1.16-1.873-1.855c0.945,0.003,1.921,0.253,2.739,0.779c0.831,0.505,1.562,1.206,2.08,2.026
							c0.532,0.814,0.897,1.72,1.082,2.651C127.209,185.941,127.246,186.903,126.965,187.832z"/>
						<path fill="#A06600" d="M129.363,178.697c-1.016-1.014-1.734-1.847-2.558-2.453c-0.402-0.315-0.822-0.568-1.325-0.783
							c-0.497-0.255-1.076-0.385-1.769-0.657c0.559-0.451,1.269-0.722,2.023-0.702c0.748-0.004,1.53,0.264,2.13,0.739
							c0.609,0.461,1.059,1.086,1.32,1.75C129.434,177.265,129.548,177.979,129.363,178.697z"/>
						<path fill="#A06600" d="M98.396,181.597c-0.056,0.919-0.093,1.736-0.093,2.545c-0.002,0.808,0.013,1.59,0.073,2.375
							c0.075,0.778,0.123,1.57,0.253,2.374c0.086,0.815,0.248,1.63,0.296,2.564c-0.703-0.595-1.242-1.343-1.623-2.169
							c-0.402-0.821-0.601-1.735-0.681-2.649c-0.067-0.921,0.045-1.853,0.325-2.728C97.237,183.043,97.676,182.198,98.396,181.597z"
							/>
						<path fill="#A06600" d="M104.042,183.053c0.569,1.581,0.784,3.028,1.025,4.471l0.344,2.147l0.421,2.269
							c-0.754-0.399-1.308-1.079-1.724-1.803c-0.396-0.734-0.643-1.53-0.776-2.335c-0.13-0.803-0.135-1.617-0.033-2.415
							C103.416,184.587,103.609,183.793,104.042,183.053z"/>
						<path fill="#A06600" d="M110.101,182.664c0.64,0.532,1.089,1.175,1.478,1.839c0.376,0.672,0.671,1.386,0.877,2.126
							c0.206,0.741,0.321,1.516,0.326,2.299c-0.015,0.784-0.123,1.592-0.493,2.335c-0.366-0.746-0.624-1.425-0.872-2.109
							c-0.247-0.684-0.467-1.361-0.653-2.056c-0.193-0.692-0.356-1.398-0.481-2.129C110.165,184.236,110.07,183.491,110.101,182.664
							z"/>
						<path fill="#A06600" d="M116.4,181.996c0.722,0.378,1.245,0.97,1.687,1.59c0.434,0.631,0.764,1.321,0.99,2.043
							c0.428,1.447,0.55,3.01-0.04,4.503c-0.431-0.69-0.689-1.358-0.961-2.014c-0.244-0.662-0.483-1.306-0.677-1.964
							c-0.205-0.652-0.392-1.311-0.561-1.991C116.672,183.478,116.515,182.79,116.4,181.996z"/>
						<path fill="#A06600" d="M115.523,159.298c-0.101-0.51,0.063-0.953,0.299-1.323c0.246-0.364,0.592-0.66,0.987-0.835
							c0.792-0.346,1.768-0.326,2.475,0.393c-0.37,0.37-0.674,0.565-0.951,0.766c-0.283,0.174-0.529,0.332-0.793,0.442
							c-0.264,0.115-0.531,0.216-0.847,0.304C116.368,159.127,116.025,159.208,115.523,159.298z"/>
						<path fill="#A06600" d="M117.259,162.408c0.011-0.606,0.343-1.104,0.725-1.491c0.396-0.382,0.89-0.646,1.401-0.796
							c0.515-0.15,1.053-0.172,1.572-0.089c0.517,0.098,1.021,0.294,1.462,0.689c-0.494,0.341-0.936,0.517-1.353,0.689
							c-0.418,0.166-0.809,0.289-1.198,0.399c-0.387,0.113-0.774,0.202-1.187,0.294L117.259,162.408z"/>
						<path fill="#A06600" d="M119.316,165.933c0.167-0.635,0.554-1.114,0.996-1.515c0.453-0.392,0.994-0.678,1.579-0.845
							c1.154-0.334,2.563-0.137,3.413,0.835c-0.621,0.229-1.11,0.319-1.586,0.479l-1.354,0.381
							c-0.446,0.124-0.903,0.244-1.396,0.364C120.469,165.744,119.956,165.86,119.316,165.933z"/>
						<path fill="#A06600" d="M122.131,169.528c0.095-0.567,0.466-0.972,0.86-1.275c0.403-0.295,0.876-0.475,1.354-0.55
							c0.479-0.076,0.965-0.036,1.425,0.099c0.459,0.147,0.897,0.381,1.262,0.808c-0.479,0.303-0.893,0.443-1.29,0.575
							c-0.395,0.123-0.766,0.201-1.131,0.256c-0.367,0.058-0.729,0.083-1.121,0.097
							C123.092,169.547,122.686,169.537,122.131,169.528z"/>
					</g>
				</g>
				<path fill="#FFCDBD" d="M106.451,180.666c0,0-1.34-19.089,10.311-35.507c0,0,31.075,11.522,48.314-14.538
					c0,0,8.77-10.952,3.532-31.541c0,0-6.088-29.842-10.589-36.667c-4.501-6.826-31.334-22.418-58.023,1.065
					C73.308,86.961,79.14,162.206,81.334,166.881C81.334,166.881,103.099,186.253,106.451,180.666z"/>
				<g>
					<path fill="#0B1838" d="M40.221,235.386c0,0-24.455-5.259-35.764-22.051C-6.85,196.544,41.916,38.648,98.077,22.363
						c56.158-16.284,67.106,22.782,67.106,22.782s7.901,23.15,14.285,26.509c0,0-4.009,3.013-16.523,3.208l-2.438-8.596
						l-1.455,9.088c0,0-19.767,4.281-39.966-1.04c0,0,1.687-12.138,0.489-18.81c0,0-4.856,19.424-7.922,21.201l-8.086-0.183
						c0,0-27.491,61.801-14.029,104.338c0,0,8.283,22.181,16.362,31.711C105.9,212.57,78.711,236.552,40.221,235.386z"/>
					<path fill="#1E3F82" d="M13.424,211.052c0.623-6.357,1.619-12.674,2.671-18.979c1.122-6.295,2.402-12.561,3.816-18.797
						c2.834-12.477,6.42-24.778,10.557-36.895c4.296-12.059,9.205-23.922,15.138-35.277c2.992-5.662,6.234-11.19,9.695-16.574
						c3.573-5.313,7.357-10.479,11.5-15.344c-3.833,5.115-7.461,10.359-10.773,15.804c-3.296,5.453-6.388,11.025-9.218,16.729
						c-2.768,5.733-5.49,11.491-7.914,17.381c-2.421,5.889-4.692,11.841-6.768,17.862c-2.115,6.007-4.077,12.067-5.893,18.176
						c-1.821,6.109-3.422,12.279-5.017,18.45c-1.567,6.178-2.988,12.396-4.28,18.646C15.601,198.471,14.438,204.746,13.424,211.052z
						"/>
					<path fill="#1E3F82" d="M37.366,173.132c0.588-6.841,1.729-13.631,3.226-20.34c1.489-6.713,3.396-13.332,5.634-19.846
						c2.315-6.487,5.055-12.826,8.266-18.924c3.29-6.061,7.189-11.788,11.701-16.958c-1.873,2.885-3.97,5.583-5.584,8.607
						c-1.827,2.885-3.296,5.972-4.896,8.978l-2.142,4.644c-0.35,0.777-0.736,1.534-1.054,2.325l-0.963,2.371
						c-0.62,1.588-1.352,3.127-1.906,4.741l-1.764,4.802c-2.25,6.438-4.211,12.979-5.964,19.584
						c-0.864,3.306-1.692,6.623-2.441,9.961C38.675,166.405,38.017,169.764,37.366,173.132z"/>
					<path fill="#1E3F82" d="M135.777,27.094c4.743,0.616,9.271,2.744,12.991,5.803c0.484,0.362,0.927,0.775,1.363,1.19
						c0.44,0.416,0.891,0.818,1.28,1.284l1.205,1.353l1.092,1.446c0.382,0.472,0.693,0.99,1.015,1.501
						c0.317,0.513,0.655,1.019,0.955,1.538c0.581,1.045,1.178,2.083,1.734,3.143c2.223,4.235,4.266,8.556,6.263,12.885
						c0.996,2.166,1.996,4.33,3.099,6.436c1.082,2.113,2.267,4.198,3.938,5.911c-1.814-1.572-3.105-3.655-4.317-5.702
						c-1.188-2.083-2.258-4.217-3.329-6.351c-2.126-4.275-4.156-8.586-6.428-12.769c-0.543-1.058-1.125-2.096-1.69-3.142
						c-0.291-0.518-0.611-1.007-0.915-1.513c-0.308-0.502-0.604-1.01-0.972-1.472c-1.319-1.958-2.983-3.646-4.727-5.225
						c-1.767-1.558-3.744-2.889-5.861-3.947C140.365,28.394,138.119,27.554,135.777,27.094z"/>
					<path fill="#1E3F82" d="M122.56,30.407c-1.864,0.647-3.57,1.663-5.108,2.86c-1.532,1.199-2.957,2.554-4.105,4.126
						c-2.4,3.065-4.012,6.686-4.987,10.454c-1.034,3.765-1.266,7.692-1.717,11.618l-0.69,5.877l-0.42,2.93
						c-0.075,0.487-0.149,0.976-0.242,1.463l-0.083,0.363c-0.03,0.065-0.006,0.107-0.095,0.2c-0.103-0.004-0.068-0.088-0.084-0.103
						l-0.004-0.094c-0.003-0.25,0.016-0.496,0.03-0.741c0.007,0.245,0.012,0.494,0.035,0.736l0.015,0.088
						c-0.004,0.03,0.034,0.057-0.02,0.035c-0.017-0.004,0.021-0.092,0.025-0.143l0.048-0.362c0.058-0.488,0.102-0.979,0.144-1.469
						l0.222-2.946l0.444-5.898c0.068-0.98,0.141-1.966,0.229-2.946c0.077-0.98,0.156-1.963,0.293-2.951
						c0.138-0.985,0.211-1.979,0.4-2.956l0.621-2.925c1.064-3.834,2.72-7.581,5.311-10.648
						C115.354,33.905,118.723,31.418,122.56,30.407z"/>
					<path fill="#1E3F82" d="M133.178,33.172c2.123,2.125,3.342,4.956,4.465,7.696c1.091,2.783,1.883,5.668,2.535,8.575
						c0.343,1.452,0.585,2.92,0.866,4.38c0.219,1.472,0.466,2.942,0.651,4.412l0.588,4.41c0.166,1.475,0.362,2.945,0.501,4.425
						c-0.335-1.447-0.616-2.902-0.924-4.357l-0.833-4.373l-0.801-4.368c-0.306-1.446-0.553-2.904-0.905-4.338
						c-0.628-2.885-1.386-5.737-2.313-8.537c-0.483-1.39-0.979-2.782-1.607-4.114C134.797,35.644,134.124,34.317,133.178,33.172z"/>
					<path fill="#1E3F82" d="M81.426,107.574c-1.631,5.683-2.911,11.436-4.026,17.205c-1.084,5.779-1.918,11.593-2.384,17.438
						c-0.479,5.838-0.565,11.706-0.161,17.549c0.216,2.92,0.576,5.829,1.064,8.724c0.483,2.898,1.219,5.745,2.025,8.593
						c-1.183-2.713-2.091-5.541-2.868-8.413c-0.697-2.887-1.251-5.815-1.589-8.772c-0.341-2.957-0.508-5.934-0.548-8.908
						c-0.009-2.976,0.099-5.948,0.325-8.915c0.262-2.962,0.608-5.912,1.069-8.847c0.482-2.929,1.039-5.844,1.729-8.729
						C77.413,118.727,79.15,113.037,81.426,107.574z"/>
				</g>
				<g>
					<path fill="#FFCDBD" d="M97.613,107.431c0,0-12.917-4.841-13.917-16.917c0,0,0.559-7.802,7.731-7.385
						c7.173,0.417,7.943,7.506,7.943,7.506L97.613,107.431z"/>
					<path fill="#B26356" d="M94.667,88.938c-0.864-0.396-1.755-0.696-2.504-0.625c-0.746,0.07-1.164,0.446-1.517,1.046
						c-0.35,0.61-0.577,1.397-0.775,2.194c-0.152,0.748-0.207,1.462-0.105,2.226c0.104,0.754,0.308,1.515,0.603,2.265
						c0.313,0.741,0.704,1.462,1.161,2.162c0.479,0.675,1.005,1.341,1.647,1.906c0.629,0.584,1.354,1.074,2.274,1.367
						c-0.939,0.305-2.002,0.106-2.941-0.256c-0.934-0.395-1.803-0.957-2.548-1.659c-0.733-0.709-1.353-1.539-1.854-2.451
						c-0.481-0.924-0.81-1.944-0.961-3.012c-0.134-1.072-0.008-2.219,0.329-3.246c0.352-0.954,0.767-1.927,1.554-2.784
						c0.211-0.209,0.453-0.4,0.68-0.584c0.271-0.156,0.541-0.322,0.838-0.414c0.611-0.189,1.251-0.194,1.796-0.035
						C93.422,87.397,94.172,88.11,94.667,88.938z"/>
				</g>
				<g>
					<path fill="#0B1838" d="M120.539,101.627c0.202-1.317,0.906-2.492,1.844-3.455c0.943-0.958,2.214-1.68,3.599-1.966
						c1.377-0.275,2.853-0.203,4.095,0.344c0.322,0.103,0.627,0.245,0.906,0.43c0.284,0.172,0.564,0.352,0.833,0.537
						c0.506,0.422,0.972,0.884,1.362,1.407c-0.688-0.015-1.274-0.149-1.868-0.215c-0.299-0.02-0.588-0.046-0.868-0.079l-0.416-0.058
						l-0.415-0.004c-1.092-0.105-2.099,0.04-3.072,0.215c-0.977,0.203-1.939,0.55-2.918,1.042
						C122.637,100.321,121.646,100.921,120.539,101.627z"/>
					<path fill="#0B1838" d="M156.12,96.486c0.402-0.824,1.126-1.359,1.941-1.673c0.82-0.306,1.791-0.341,2.683-0.055
						c0.884,0.286,1.698,0.847,2.171,1.592c0.276,0.346,0.409,0.775,0.552,1.172c0.09,0.425,0.143,0.852,0.094,1.302
						c-0.456-0.153-0.778-0.356-1.12-0.515c-0.356-0.132-0.621-0.33-0.927-0.43c-0.558-0.289-1.068-0.43-1.555-0.603
						c-0.494-0.162-1.013-0.3-1.634-0.414L156.12,96.486z"/>
				</g>
				<g>
					<defs>
						<path id="SVGID_3_" d="M106.451,180.666c0,0-1.34-19.089,10.311-35.507c0,0,31.075,11.522,48.314-14.538
							c0,0,8.77-10.952,3.532-31.541c0,0-6.088-29.842-10.589-36.667c-4.501-6.826-31.334-22.418-58.023,1.065
							C73.308,86.961,79.14,162.206,81.334,166.881C81.334,166.881,103.099,186.253,106.451,180.666z"/>
					</defs>
					<clipPath id="SVGID_4_">
						<use xlink:href="#SVGID_3_"  overflow="visible"/>
					</clipPath>
					<g clip-path="url(#SVGID_4_)">
						
							<radialGradient id="SVGID_5_" cx="47.2119" cy="106.7998" r="15.9775" gradientTransform="matrix(2.5448 0 0 0.9954 2.2296 2.31)" gradientUnits="userSpaceOnUse">
							<stop  offset="0" style="stop-color:#B34130;stop-opacity:0.9367"/>
							<stop  offset="0.6367" style="stop-color:#FFBFAD;stop-opacity:0"/>
						</radialGradient>
						<ellipse opacity="0.6" fill="url(#SVGID_5_)" cx="122.377" cy="108.62" rx="53.118" ry="8.612"/>
						
							<radialGradient id="SVGID_6_" cx="52.7788" cy="106.7998" r="12.0913" gradientTransform="matrix(2.9972 0 0 0.9954 5.3744 2.31)" gradientUnits="userSpaceOnUse">
							<stop  offset="0" style="stop-color:#B34130;stop-opacity:0.9367"/>
							<stop  offset="0.6367" style="stop-color:#FFBFAD;stop-opacity:0"/>
						</radialGradient>
						<ellipse opacity="0.6" fill="url(#SVGID_6_)" cx="163.561" cy="108.62" rx="47.345" ry="6.517"/>
					</g>
				</g>
				<path fill="#FFFFFF" d="M109.548,83.111c0,0-4.667-17.826-3.353-26.657c0,0,21.169-14.391,49.925-4.424
					c0,0,4.185,9.086,3.721,25.5C159.841,77.529,140.029,74.042,109.548,83.111z"/>
				<g>
					<g>
						<path fill="#0B1838" d="M114.016,96.22c0,0-2.002,0.637-1.271-1.245c0.735-1.882,6.91-7.155,12.097-7.48
							c5.188-0.331-1.968,3.069-4.556,4.423C117.695,93.273,114.016,96.22,114.016,96.22z"/>
						<path fill="#0B1838" d="M164.032,89.764c0,0,1.379-0.046,0.672-1.438c-0.703-1.39-5.36-4.072-8.775-2.823
							c-3.414,1.249,1.651,2.046,3.5,2.437C161.278,88.332,164.032,89.764,164.032,89.764z"/>
					</g>
					<path fill="#0B1838" d="M135.27,124.373c0.876-1.317,2.07-2.342,3.402-3.167c1.336-0.811,2.87-1.409,4.554-1.563
						c1.66-0.18,3.566,0.246,4.921,1.391c1.375,1.122,2.047,2.739,2.151,4.287c-1.11-1.117-2.14-2.073-3.283-2.551
						c-1.122-0.501-2.294-0.614-3.56-0.501c-1.264,0.109-2.587,0.427-3.938,0.823C138.156,123.482,136.778,123.946,135.27,124.373z"
						/>
					<path fill="#FF9C85" d="M147.703,95.433c0,0,0.053-3.252-1.595-0.343c-1.647,2.912-4.319,8.699-4.225,11.54
						c0.095,2.84,2.588,9.553,6.109,6.665c3.521-2.889,2.219-6.524,1.22-9.954C148.215,99.909,147.703,95.433,147.703,95.433z"/>
				</g>
			</g>
		</g>
	</g>
</g>
</svg>
